<svg width="946" height="988" viewBox="0 0 946 988" fill="none" xmlns="http://www.w3.org/2000/svg">
<path d="M569.301 375.12C516.415 368.342 447.993 436.278 439.522 492.298C430.175 554.169 542.83 634.112 561.805 632.434C580.781 630.759 499.752 511.545 538.233 478.618C580.955 442.075 658.516 504.273 668.055 481.679C677.443 459.45 630.431 382.958 569.301 375.12Z" stroke="#FF4FD8" stroke-width="5" stroke-miterlimit="10"/>
<path d="M560.67 359.588C502.807 344.228 425.614 430.996 418.853 495.651C411.21 568.893 540.538 643.34 562.891 648.73C582.153 653.388 512.172 524.376 553.596 480.502C598.588 432.823 673.759 479.584 676.023 461.956C678.434 443.047 628.538 377.671 560.67 359.588Z" stroke="#FF4FD8" stroke-width="5" stroke-miterlimit="10"/>
<path d="M551.956 344.031C489.242 320.085 403.245 425.674 398.158 498.916C392.24 583.603 537.329 651.527 563.888 664.926C583.221 674.62 524.576 537.261 568.884 482.278C616.146 423.645 690.881 455.34 683.824 442.265C681.483 427.259 626.71 372.555 551.956 344.031Z" stroke="#FF4FD8" stroke-width="5" stroke-miterlimit="10"/>
<path d="M543.185 328.345C475.582 295.977 380.85 420.252 377.424 502.109C373.352 598.148 530.3 670.687 564.857 681.043C586.507 687.524 536.988 550.116 584.109 484.028C633.704 414.484 706.959 430.786 691.609 422.479C683.365 411.056 624.742 367.431 543.185 328.345Z" stroke="#FF4FD8" stroke-width="5" stroke-miterlimit="10"/>
<path d="M534.461 312.622C461.955 271.888 358.503 414.808 356.624 505.246C354.381 612.718 525.174 678.305 565.815 697.123C588.629 707.668 549.401 562.961 599.345 485.696C651.274 405.22 722.497 410.57 699.417 402.591C684.642 397.469 622.874 362.286 534.461 312.622Z" stroke="#FF4FD8" stroke-width="5" stroke-miterlimit="10"/>
<path d="M525.824 296.829C448.371 247.784 336.25 409.299 335.955 508.304C335.587 627.219 528.34 671.649 566.856 713.203C586.83 734.709 561.946 575.834 614.668 487.34C669.068 396.092 739.453 385.521 707.289 382.71C687.31 380.897 621.04 357.147 525.824 296.829Z" stroke="#FF4FD8" stroke-width="5" stroke-miterlimit="10"/>
<path d="M517.141 281.042C434.737 223.689 313.981 403.753 315.204 511.404C316.75 641.777 525.998 677.743 567.926 729.213C588.437 754.397 574.517 588.651 630.016 488.903C686.855 386.754 756.005 360.223 715.227 362.711C689.647 364.279 619.184 352.046 517.141 281.042Z" stroke="#FF4FD8" stroke-width="5" stroke-miterlimit="10"/>
<path d="M508.459 265.238C421.081 199.616 291.699 398.315 294.46 514.511C297.884 656.311 523.9 683.739 568.964 745.295C590.101 774.152 587.117 601.51 645.356 490.539C704.641 377.57 772.337 335.057 723.132 342.783C691.837 347.683 617.274 346.969 508.459 265.238Z" stroke="#FF4FD8" stroke-width="5" stroke-miterlimit="10"/>
<path d="M499.783 249.442C407.426 175.565 269.387 392.794 273.726 517.622C279.052 670.868 521.964 689.742 570.005 761.392C591.835 793.959 599.717 614.422 660.686 492.184C722.442 368.379 788.581 309.992 731.043 322.86C693.938 331.131 615.397 341.939 499.783 249.442Z" stroke="#FF4FD8" stroke-width="5" stroke-miterlimit="10"/>
<path d="M491.085 233.655C393.66 151.527 247.108 387.286 252.988 520.717C260.2 685.374 520.195 695.668 571.051 777.442C593.632 813.746 612.329 627.29 676.019 493.797C740.257 359.165 804.819 284.967 738.938 302.894C695.986 314.607 613.465 336.914 491.085 233.655Z" stroke="#FF4FD8" stroke-width="5" stroke-miterlimit="10"/>
<path d="M482.389 217.855C380.04 127.475 224.802 381.756 232.24 523.823C241.411 699.948 518.552 701.675 572.08 793.514C595.456 833.569 624.955 640.19 691.354 495.431C758.08 349.96 820.965 259.968 746.826 282.963C698.002 298.098 611.509 331.893 482.389 217.855Z" stroke="#FF4FD8" stroke-width="5" stroke-miterlimit="10"/>
<path d="M473.689 202.051C366.337 103.433 202.567 376.279 211.49 526.922C222.606 714.483 516.877 707.593 573.126 809.536C597.294 853.381 637.558 653.085 706.696 497.008C775.914 340.723 837.138 234.97 754.728 262.985C700.015 281.605 609.546 326.867 473.689 202.051Z" stroke="#FF4FD8" stroke-width="5" stroke-miterlimit="10"/>
<path d="M464.979 186.264C352.614 79.3986 180.266 370.83 190.748 530.009C203.799 729.015 515.306 713.575 574.144 825.637C599.154 873.271 650.204 665.961 722.008 498.665C793.81 331.368 853.257 210.054 762.611 243.038C702.004 265.12 607.564 321.873 464.979 186.264Z" stroke="#FF4FD8" stroke-width="5" stroke-miterlimit="10"/>
<path d="M456.272 170.46C338.886 55.3601 158.03 365.253 169.984 533.091C184.959 743.595 513.755 719.627 575.146 841.679C601.015 893.137 662.825 678.832 737.315 500.278C811.531 322.34 869.382 185.144 770.448 223.116C703.975 248.643 605.583 316.858 456.272 170.46Z" stroke="#FF4FD8" stroke-width="5" stroke-miterlimit="10"/>
<path d="M447.557 154.651C325.154 31.3185 136.038 359.735 149.266 536.206C166.571 758.081 512.347 725.594 576.197 857.739C602.918 913.035 675.487 691.735 752.65 501.913C829.375 313.162 885.54 160.244 778.35 203.188C705.939 232.16 603.554 311.846 447.557 154.651Z" stroke="#FF4FD8" stroke-width="5" stroke-miterlimit="10"/>
<path d="M438.836 138.86C311.414 7.29478 113.752 354.212 128.49 539.238C147.676 772.589 510.88 731.478 577.182 873.725C604.786 932.864 688.089 704.554 767.941 503.44C847.196 303.869 901.637 135.262 786.206 183.149C707.9 215.681 601.545 306.836 438.836 138.86Z" stroke="#FF4FD8" stroke-width="5" stroke-miterlimit="10"/>
<path d="M430.113 123.047C297.607 -16.7833 91.4416 348.683 107.726 542.325C128.882 786.992 509.373 737.555 578.17 889.764C606.69 952.81 701.003 717.636 783.202 505.075C865.28 294.889 917.702 110.396 794.017 163.253C709.842 199.207 599.503 301.816 430.113 123.047Z" stroke="#FF4FD8" stroke-width="5" stroke-miterlimit="10"/>
<path d="M421.39 107.238C283.695 -40.5149 69.1306 343.158 86.9677 545.403C109.99 801.57 507.937 743.574 579.177 905.804C608.531 972.652 713.553 730.448 798.497 506.683C883.023 285.639 933.78 85.5041 801.852 143.283C711.782 182.735 597.202 297.14 421.39 107.238Z" stroke="#FF4FD8" stroke-width="5" stroke-miterlimit="10"/>
<path d="M412.651 91.4358C269.98 -64.614 46.8475 337.629 66.2052 548.471C91.1259 816.048 506.51 749.579 580.162 921.821C610.403 992.534 726.121 743.235 813.77 508.274C900.753 276.381 949.868 60.6059 809.681 123.33C713.638 166.294 595.208 292.045 412.651 91.4358Z" stroke="#FF4FD8" stroke-width="5" stroke-miterlimit="10"/>
<path d="M403.92 75.6183C256.267 -88.7144 24.5237 332.082 45.4536 551.522C72.3 830.488 505.101 755.615 581.154 937.819C612.288 1012.42 738.71 756.133 829.018 509.903C918.397 267.111 965.798 35.4444 817.493 103.403C715.547 149.567 593.222 286.937 403.92 75.6183Z" stroke="#FF4FD8" stroke-width="5" stroke-miterlimit="10"/>
<path d="M395.186 59.8008C242.572 -112.854 2.16467 326.529 24.692 554.584C53.4263 845.007 503.688 761.645 582.166 953.774C614.203 1032.27 751.225 768.836 844.346 511.403C936.211 257.844 981.943 10.6753 825.346 83.3947C717.507 133.212 591.217 281.914 395.186 59.8008Z" stroke="#FF4FD8" stroke-width="5" stroke-miterlimit="10"/>
<path d="M833.151 63.4283C719.471 116.842 589.216 276.716 386.442 43.9946C228.818 -136.924 -20.0984 320.99 3.91746 557.632C34.5653 859.495 502.272 767.672 583.12 969.816C648.489 1133.3 1165.6 -92.7937 833.151 63.4283Z" stroke="#FF4FD8" stroke-width="5" stroke-miterlimit="10"/>
</svg>
