<svg width="650" height="778" viewBox="0 0 650 778" fill="none" xmlns="http://www.w3.org/2000/svg">
<path d="M277.619 388.874C307.583 356.916 361.089 361.285 376.862 390.2C394.277 422.14 343.038 529.256 331.497 538.274C319.957 547.292 344.953 433.467 315.875 434.157C283.596 434.931 249.694 512.945 239.713 504.515C229.891 496.223 242.986 425.817 277.619 388.874Z" stroke="#FF4FD8" stroke-width="5" stroke-miterlimit="10"/>
<path d="M279.464 375.427C310.727 335.717 373.048 346.683 389.473 381.656C408.07 421.282 345.906 533.949 333.724 548.965C323.23 561.913 339.814 448.053 306.887 443.772C271.119 439.105 235.657 506.673 230.93 497.36C225.87 487.361 242.809 422.042 279.464 375.427Z" stroke="#FF4FD8" stroke-width="5" stroke-miterlimit="10"/>
<path d="M281.441 361.894C313.912 314.52 385.038 332.05 402.119 373.012C421.89 420.355 349.171 537.419 336.046 559.423C326.48 575.406 334.755 462.593 297.998 453.215C258.792 443.222 220.703 501.559 222.362 490.042C220.863 479.864 242.731 418.352 281.441 361.894Z" stroke="#FF4FD8" stroke-width="5" stroke-miterlimit="10"/>
<path d="M283.503 348.211C317.241 293.249 397.107 317.297 414.858 364.26C435.714 419.33 356.887 545.378 338.451 569.786C326.9 585.073 329.771 477.071 289.224 462.565C246.551 447.304 206.385 495.677 213.862 482.627C216.54 471.47 242.808 414.54 283.503 348.211Z" stroke="#FF4FD8" stroke-width="5" stroke-miterlimit="10"/>
<path d="M285.461 334.258C320.495 271.711 409.113 302.274 427.602 355.176C449.578 418.038 361.216 547.278 340.807 579.945C329.346 598.271 324.731 491.329 280.36 471.647C234.199 451.101 193.124 491.884 205.234 474.947C212.984 464.095 242.738 410.524 285.461 334.258Z" stroke="#FF4FD8" stroke-width="5" stroke-miterlimit="10"/>
<path d="M287.322 320.189C323.686 250.074 421.005 287.144 440.205 345.992C463.273 416.667 357.859 544.896 343.074 589.993C335.398 613.354 319.58 505.534 271.407 480.626C221.713 454.962 178.072 485.817 196.547 467.163C208.009 455.536 242.623 406.399 287.322 320.189Z" stroke="#FF4FD8" stroke-width="5" stroke-miterlimit="10"/>
<path d="M289.221 306.131C326.927 228.421 432.95 272.007 452.92 336.835C477.066 415.38 360.237 547.323 345.337 600.15C338.048 625.996 314.42 519.827 262.426 489.666C209.178 458.779 163.185 479.478 187.778 459.428C203.206 446.854 242.524 402.351 289.221 306.131Z" stroke="#FF4FD8" stroke-width="5" stroke-miterlimit="10"/>
<path d="M291.121 292.066C330.189 206.772 444.926 256.932 465.634 327.689C490.874 414.068 362.454 549.817 347.633 610.334C340.679 638.71 309.25 534.169 253.463 498.75C196.674 462.692 148.456 473.097 179.047 451.713C198.501 438.104 242.469 398.291 291.121 292.066Z" stroke="#FF4FD8" stroke-width="5" stroke-miterlimit="10"/>
<path d="M293.029 278.001C333.463 185.129 456.91 241.784 478.35 318.545C504.67 412.78 364.583 552.389 349.939 620.516C343.286 651.479 304.095 548.538 244.514 507.83C184.166 466.602 133.807 466.717 170.324 443.991C193.868 429.32 242.415 394.269 293.029 278.001Z" stroke="#FF4FD8" stroke-width="5" stroke-miterlimit="10"/>
<path d="M294.949 263.938C336.803 163.445 468.873 226.672 491.06 309.398C518.464 411.461 366.592 555.007 352.228 630.678C345.848 664.274 298.919 562.897 235.553 516.901C171.643 470.514 119.167 460.36 161.6 436.241C189.27 420.53 242.393 390.23 294.949 263.938Z" stroke="#FF4FD8" stroke-width="5" stroke-miterlimit="10"/>
<path d="M296.873 249.868C340.059 141.83 480.852 211.532 503.781 300.251C532.236 410.212 368.547 557.733 354.535 640.837C348.406 677.098 293.746 577.279 226.6 525.983C159.123 474.434 104.593 453.965 152.895 428.5C184.702 411.726 242.393 386.177 296.873 249.868Z" stroke="#FF4FD8" stroke-width="5" stroke-miterlimit="10"/>
<path d="M298.801 235.796C343.369 120.179 492.801 196.464 516.503 291.1C546.011 408.932 370.505 560.386 356.826 650.973C350.956 689.92 288.587 591.648 217.634 535.036C146.594 478.341 90.0087 447.583 144.177 420.739C180.145 402.929 242.402 382.12 298.801 235.796Z" stroke="#FF4FD8" stroke-width="5" stroke-miterlimit="10"/>
<path d="M300.745 221.726C346.697 98.5224 504.796 181.377 529.22 281.944C559.787 407.645 372.418 563.124 359.151 661.13C353.512 702.788 283.403 606.021 208.708 544.113C134.013 482.204 75.4797 441.213 135.485 412.978C175.61 394.117 242.435 378.066 300.745 221.726Z" stroke="#FF4FD8" stroke-width="5" stroke-miterlimit="10"/>
<path d="M302.689 207.652C350.031 76.8674 516.73 166.253 541.951 272.776C573.593 406.371 374.336 565.912 361.48 671.24C356.068 715.64 278.238 620.377 199.781 553.162C121.604 486.171 60.9561 434.85 126.831 405.209C171.095 385.302 242.469 374.003 302.689 207.652Z" stroke="#FF4FD8" stroke-width="5" stroke-miterlimit="10"/>
<path d="M304.642 193.565C353.372 55.2038 528.533 151.288 554.662 263.646C587.115 405.269 376.157 568.711 363.786 681.372C358.608 728.516 273.059 634.76 190.847 562.228C109.101 490.103 46.4233 428.5 118.146 397.46C166.59 376.469 242.539 369.908 304.642 193.565Z" stroke="#FF4FD8" stroke-width="5" stroke-miterlimit="10"/>
<path d="M306.604 179.486C356.723 33.5496 540.51 136.165 567.392 254.435C600.941 403.911 377.998 571.426 366.12 691.42C361.158 741.328 267.902 649.059 181.923 571.202C96.5938 493.951 31.9149 422.067 109.47 389.619C162.091 367.635 242.6 365.822 306.604 179.486Z" stroke="#FF4FD8" stroke-width="5" stroke-miterlimit="10"/>
<path d="M308.57 165.4C360.11 11.839 552.501 121.035 580.127 245.268C614.687 402.544 379.906 574.231 368.467 701.494C363.715 754.22 262.619 663.673 173.047 580.222C84.0028 498.124 17.4615 415.686 100.861 381.841C157.616 358.797 242.688 361.716 308.57 165.4Z" stroke="#FF4FD8" stroke-width="5" stroke-miterlimit="10"/>
<path d="M310.541 151.313C363.627 -9.72348 564.497 105.902 592.859 236.094C628.527 401.225 381.763 577.034 370.806 711.573C366.292 767.011 257.502 677.928 164.148 589.238C71.5651 501.952 2.9986 409.293 92.2256 374.028C153.144 349.954 242.998 357.674 310.541 151.313Z" stroke="#FF4FD8" stroke-width="5" stroke-miterlimit="10"/>
<path d="M312.525 137.221C366.961 -31.4009 576.477 90.7819 605.592 226.91C642.333 399.857 383.615 579.826 373.158 721.618C368.862 779.831 252.375 692.169 155.265 598.225C59.1394 505.761 -11.4643 402.896 83.6041 366.216C148.734 341.081 243.05 353.54 312.525 137.221Z" stroke="#FF4FD8" stroke-width="5" stroke-miterlimit="10"/>
<path d="M314.507 123.124C370.298 -53.0742 588.478 75.6306 618.317 217.721C656.109 398.483 385.466 582.641 375.504 731.648C371.429 792.654 247.261 706.481 146.41 607.217C46.7701 509.514 -25.8756 396.255 75.0041 358.409C144.244 332.064 243.101 349.4 314.507 123.124Z" stroke="#FF4FD8" stroke-width="5" stroke-miterlimit="10"/>
<path d="M316.492 109.028C373.617 -74.7583 600.5 60.4591 631.05 208.535C669.928 397.131 387.32 585.449 377.833 741.66C373.972 805.469 242.156 720.636 137.485 616.173C34.3036 513.358 -40.3368 389.964 66.3671 350.576C139.797 323.297 243.18 345.302 316.492 109.028Z" stroke="#FF4FD8" stroke-width="5" stroke-miterlimit="10"/>
<path d="M57.8191 342.762C135.397 314.527 243.28 341.081 318.517 94.9066C376.999 -96.464 612.501 45.261 643.838 199.236C683.805 395.654 389.259 588.195 380.313 751.632C373.088 883.804 -169.055 425.323 57.8191 342.762Z" stroke="#FF4FD8" stroke-width="5" stroke-miterlimit="10"/>
</svg>
